<?xml version="1.0" encoding="UTF-8" standalone="no"?>
<svg
   version="1.1"
   width="1024"
   viewBox="0 0 1024 1024"
   enable-background="new 0 0 512 512"
   xml:space="preserve"
   height="1024"
   xmlns="http://www.w3.org/2000/svg"
   xmlns:svg="http://www.w3.org/2000/svg">
	<rect style="fill:#fcfdef;fill-opacity:1;fill-rule:evenodd;paint-order:markers stroke fill" width="1024" height="1024" x="0" y="0" />
	<path fill="#fdaa7c" opacity="1" stroke="none" d="m 532.09967,642.06091 c 25.61877,-1.0011 50.61841,-5.23071 74.16901,-15.69055 25.84015,-11.47668 48.44323,-27.45947 67.21686,-48.90192 13.95934,-15.94378 25.63787,-33.26348 33.02899,-53.03961 4.7442,-12.69378 7.81811,-26.04406 11.07953,-39.2388 0.90667,-3.66845 2.32556,-4.41912 5.61199,-4.39349 14.1327,0.11023 28.26734,0.10937 42.40033,0.014 20.81562,-0.14057 41.63031,-0.4234 62.44587,-0.58759 7.16943,-0.0566 7.97699,0.159 6.8313,7.29062 -2.81336,17.51337 -5.46302,35.1503 -9.92811,52.28152 -10.52893,40.39698 -30.36065,76.26508 -56.89727,108.2743 -25.10437,30.28149 -55.14576,54.80835 -89.92749,73.37115 -27.48365,14.66772 -56.50611,25.21472 -87.10309,30.91284 -27.03491,5.03461 -54.32715,7.1529 -81.90247,4.93567 -17.73971,-1.42627 -35.42309,-2.81799 -52.88714,-8.37121 2.86184,-20.99878 14.55346,-36.52991 28.8721,-50.0752 9.47268,-8.96112 20.59643,-16.15082 30.45694,-24.73553 9.60736,-8.36426 16.6214,-18.48053 16.53265,-32.04615 z" />
	<path fill="#e8dbbf" opacity="1" stroke="none" d="m 531.63086,642.02685 c 0.55756,13.59968 -6.45648,23.71595 -16.06384,32.08021 -9.86051,8.58471 -20.98426,15.77441 -30.45694,24.73553 -14.31864,13.54529 -26.01026,29.07642 -29.17249,49.8515 -13.19272,-3.55481 -26.49127,-7.11804 -39.46789,-11.61108 -19.84333,-6.87049 -38.45121,-16.63495 -55.89133,-28.1286 -14.74756,-9.71918 -28.51489,-21.00586 -42.2244,-32.20099 -19.88037,-16.23425 -35.30749,-36.56861 -49.35009,-57.74738 -8.4834,-12.79449 -15.16494,-26.84906 -21.9711,-40.67462 -9.71853,-19.74151 -16.00878,-40.73267 -20.41515,-62.24127 -1.99017,-9.71448 -3.07254,-19.61475 -4.57607,-29.42929 -0.62844,-4.10227 0.51229,-6.00205 5.25368,-5.82361 9.75182,0.367 19.52811,0.18347 29.29292,0.0857 25.30005,-0.25323 50.5991,-0.60486 75.89908,-0.86795 7.20951,-0.075 7.155,0.80536 8.69849,7.76105 2.4364,10.97952 5.30185,21.96793 9.21875,32.49374 9.04163,24.29749 23.47845,45.42762 41.48871,63.85224 28.20727,28.8562 62.62076,46.8479 102.1622,54.44873 12.13711,2.33307 24.72507,2.32055 37.57547,3.41607 z" id="path1068" />
	<path fill="#e8dabf" opacity="1" stroke="none" d="m 664.42895,308.68842 c 12.43714,-4.19639 23.88215,-9.4422 33.66694,-17.75843 9.05121,-7.69262 17.42132,-16.10412 22.78289,-26.82794 5.57795,-11.15666 10.50373,-22.6394 16.11878,-34.8589 34.77698,30.69771 61.99292,67.52159 79.29193,112.44295 -92.81268,0 -184.69379,0 -277.22345,0 5.33783,-10.65757 13.17969,-17.97501 23.51373,-22.6944 9.35303,-4.27139 19.12598,-6.41651 29.49976,-6.06723 8.82312,0.29709 17.66833,-0.11652 26.49658,0.0911 15.33191,0.3606 30.51416,-0.61996 45.85284,-4.32717 z" />
	<path fill="#3b6469" opacity="1" stroke="none" d="m 540.02924,602.07819 c -31.54297,2.29223 -60.21277,-5.28376 -86.82553,-21.14991 -16.88444,-10.06622 -30.47458,-23.70556 -41.49998,-39.80584 -7.95166,-11.6117 -2.20562,-25.90406 10.82084,-27.71057 7.61505,-1.05604 12.94125,3.06311 17.24139,8.89398 11.67847,15.83539 26.16446,28.39795 44.0961,36.61926 47.62799,21.83655 101.95361,8.0141 134.35333,-33.77765 3.06281,-3.95068 6.79737,-7.90149 11.09534,-10.25073 6.33307,-3.46173 13.15387,-1.52088 18.09985,3.84784 4.83399,5.24731 6.7403,11.77923 3.17212,17.93847 -4.2937,7.41169 -9.41516,14.57349 -15.28161,20.80469 -25.66657,27.26209 -57.54651,41.74073 -95.27185,44.59046 z" />
	<path fill="#fcad7f" opacity="1" stroke="none" d="m 705.05151,383.08227 c 1.75013,-0.90106 3.41193,-1.82339 5.07611,-1.8276 37.11725,-0.0936 74.23481,-0.0906 111.3523,-0.0908 3.84894,-3e-5 7.42462,0.46542 8.0899,5.3602 2.14148,15.75567 4.56427,31.479 6.34705,47.27481 0.80127,7.09888 0.22937,7.16373 -6.75128,7.16708 -34.95374,0.0168 -69.90802,-0.0514 -104.86072,0.14978 -4.73883,0.0273 -6.16638,-1.38601 -6.52331,-6.11764 -1.25812,-16.68045 -5.82844,-32.62628 -11.89441,-48.16626 -0.41816,-1.07129 -0.62024,-2.2269 -0.83564,-3.74961 z" />
	<path fill="#07b9ad" opacity="1" stroke="none" d="m 277,440.89172 c -17.16235,0.029 -33.82619,-0.0557 -50.48596,0.1655 -4.08792,0.0543 -6.02518,-1.15271 -5.51288,-5.34485 2.03593,-16.65973 4.02692,-33.32538 6.16968,-49.97143 0.51585,-4.00742 3.7456,-3.98389 6.88792,-3.97724 24.32683,0.0513 48.65379,0.0554 72.9807,0.0718 6.46454,0.004 12.92908,6.4e-4 19.34613,6.4e-4 -4.14163,19.69956 -8.17325,38.87595 -12.41559,59.0546 -11.25015,0 -23.86008,0 -36.97,9.7e-4 z" />
	<path fill="#0ab7ab" opacity="1" stroke="none" d="m 426.64716,884.9154 c -21.05729,0.57099 -34.56077,-9.29064 -39.00727,-28.12402 -3.15646,-13.36938 2.73667,-29.05737 13.93982,-37.10895 11.5839,-8.32525 28.24689,-9.0581 40.03992,-1.76086 12.72293,7.8725 18.99792,21.23169 16.75738,35.67566 -2.73934,17.65954 -12.95199,27.87414 -31.72985,31.31817 z" />
	<path fill="#fbaa7c" opacity="1" stroke="none" d="m 532.4668,884.80695 c -20.67212,0.54309 -34.15512,-7.95331 -39.25275,-25.86127 -7.21576,-25.349 12.36285,-49.91199 40.02814,-45.58765 17.03296,2.66242 29.7456,16.41712 30.51788,33.22388 0.75751,16.48462 -9.14392,32.8493 -26.96802,37.27826 -1.28998,0.32049 -2.59161,0.59387 -4.32525,0.94678 z" />
	<path fill="#3c646a" opacity="1" stroke="none" d="m 389.20206,423.40448 c 4.5726,-18.21274 17.89425,-29.06876 35.41885,-29.22443 16.38513,-0.1456 30.71088,10.73383 34.57736,27.03943 3.38532,14.2764 -0.22592,26.89942 -11.73224,36.35184 -11.90789,9.78235 -25.52423,11.47653 -39.17819,4.52441 -13.63049,-6.94018 -20.35684,-18.68026 -19.49051,-34.29461 0.0737,-1.3292 0.22348,-2.65415 0.40473,-4.39664 z" />
	<path fill="#3c646a" opacity="1" stroke="none" d="m 601.9411,423.40487 c 4.5726,-18.21274 17.89425,-29.06876 35.41885,-29.22443 16.38513,-0.1456 30.71088,10.73383 34.57736,27.03943 3.38532,14.2764 -0.22592,26.89942 -11.73224,36.35184 -11.90789,9.78235 -25.52423,11.47653 -39.17819,4.52441 -13.63049,-6.94018 -20.35684,-18.68026 -19.49051,-34.29461 0.0737,-1.3292 0.22348,-2.65415 0.40473,-4.39664 z" />
	<path fill="#e7dabf" opacity="1" stroke="none" d="m 663.39844,865.19366 c -6.27606,9.92994 -14.11572,16.96021 -25.85157,18.95697 -11.61175,1.97559 -21.19232,-1.22113 -30.09057,-8.94268 -11.72974,-10.17865 -14.80536,-30.40162 -7.47962,-43.25806 7.58594,-13.31335 19.06879,-19.85284 34.09388,-18.79376 14.87225,1.04834 25.09167,9.54742 30.82489,23.16144 4.04705,9.60998 2.37658,19.17517 -1.49701,28.87609 z" />
	<path style="fill:#95d8c9;fill-opacity:1;fill-rule:evenodd;stroke:#95d8c9;stroke-opacity:1;paint-order:markers stroke fill" d="M 0,327.41632 327.41632,0 H 0.42743645 Z" />
	<path style="fill:#03a39a;fill-opacity:1;fill-rule:evenodd;stroke:#03a39a;stroke-opacity:1;paint-order:markers stroke fill" d="M 703.98783,1024.1377 1023.2829,710.82681 v 313.73839 z" />
	<path style="fill:#05bbae;fill-opacity:1;fill-rule:evenodd;paint-order:markers stroke fill" d="m 241.5016,341.0943 h 200.89514 c 0,0 35.90466,8.97616 74.80138,-42.31621 0,0 18.8072,-25.64619 53.42955,-26.07363 34.62236,-0.42743 59.84111,0 59.84111,0 0,0 49.58263,0.42744 65.39778,-42.31621 0,0 5.98411,-21.79926 4.7018,-28.63824 0,0 -64.97034,-49.15519 -175.67639,-49.15519 -110.70604,0 -184.22511,59.41367 -184.22511,59.41367 0,0 -44.02596,26.50106 -88.90679,105.5768 z"/>
</svg>