<?xml version="1.0" encoding="UTF-8" standalone="no"?>
<svg
   version="1.1"
   width="1024"
   viewBox="0 0 1024 1024"
   enable-background="new 0 0 1024 1024"
   xml:space="preserve"
   height="1024"
   xmlns="http://www.w3.org/2000/svg"
   xmlns:svg="http://www.w3.org/2000/svg"><defs
   id="defs1563" />
<path fill="#fcfdef" opacity="1" stroke="none" d="M 329,0.999997 C 560.93133,1 792.86261,1 1025,1 c 0,236.36133 0,472.72272 -0.3455,709.52283 -1.7257,1.6311 -3.1766,2.75134 -4.4755,4.02643 -27.42052,26.91839 -54.80119,53.87744 -82.23888,80.77832 -18.28283,17.92523 -36.64221,35.77246 -55.22045,53.66961 -0.44001,0.28101 -0.6269,0.547 -1.10724,0.94391 -1.43,1.38202 -2.56647,2.63312 -3.93787,3.94379 -0.55652,0.21527 -0.73328,0.47101 -1.02551,0.94983 -0.45044,0.44531 -0.64044,0.76776 -0.78308,1.08191 0.0474,-0.008 -6e-5,-0.0919 -0.29541,0.025 -1.2165,1.15417 -2.13764,2.19147 -3.16846,3.31335 -0.10962,0.0847 -0.20709,0.34394 -0.48077,0.45618 -3.20331,3.13812 -6.13288,6.16406 -9.02338,9.20703 0.0392,0.017 0.0424,-0.0684 -0.2356,-0.002 -0.46838,0.37836 -0.65887,0.69031 -0.78991,1.0083 0.0596,0.006 0.0444,-0.11273 -0.2312,-0.0397 -0.4679,0.38788 -0.66022,0.70276 -0.79578,1.00976 0.0567,-0.008 0.004,-0.10949 -0.32214,-0.0213 -3.71357,3.28229 -7.16346,6.41333 -10.47522,9.68433 -6.1297,6.05414 -12.17847,12.19018 -18.20643,18.31366 0.0546,0.0215 0.002,-0.0834 -0.3211,0.009 -5.07593,4.75421 -9.82886,9.41608 -14.55267,14.09827 0.029,0.0203 -0.009,-0.0393 -0.3274,0.0691 -18.75793,18.05127 -37.19769,35.9942 -55.97339,53.99768 -15.35223,14.89239 -30.41497,29.67767 -45.35589,44.58521 -4.28473,4.2751 -8.21723,8.9033 -12.31122,13.3695 -233.93048,0 -467.86098,0 -702,0 0,-232.69464 0,-465.3894 0.346359,-698.54529 1.617067,-1.50531 2.983834,-2.45288 4.144361,-3.60772 26.279088,-26.15024 52.499717,-52.35938 78.812182,-78.47596 12.274788,-12.18342 24.764808,-24.14995 37.048248,-36.32475 2.44234,-2.42075 4.3881,-5.34251 6.60336,-8.24944 0.0405,-0.21618 0.065,-0.65539 0.37502,-0.71492 0.82567,-0.37991 1.34134,-0.70028 2.14831,-1.17291 1.96254,-1.49621 3.77199,-2.70143 5.2831,-4.20624 11.49365,-11.44561 22.929,-22.9498 34.7025,-34.54596 2.35825,-2.13101 4.3965,-4.15182 6.50824,-6.36113 0.0735,-0.1885 0.14218,-0.58731 0.46902,-0.68112 2.67302,-2.44354 5.0192,-4.79327 7.54255,-7.41527 1.17906,-1.40142 2.18095,-2.5306 3.43994,-3.86103 0.41195,-1.03092 0.56677,-1.86058 0.75146,-2.68421 0.0299,0.006 0.0898,0.017 0.45082,0.0487 1.82917,-0.68866 3.61948,-1.08571 4.71639,-2.17867 12.95965,-12.91296 25.81569,-25.92996 38.92773,-39.034802 0.41825,-0.389229 0.60773,-0.663246 0.78011,-0.920174 -0.0171,0.0171 0.0314,0.01859 0.36674,-0.03634 0.89159,-0.407928 1.53481,-0.673324 1.99127,-1.126739 11.69083,-11.612129 23.37403,-23.232071 35.01032,-34.898708 0.77936,-0.781399 1.17856,-1.94199 1.9581,-2.94714 0.20355,-0.02093 0.60178,-0.115067 0.91199,-0.23441 5.11792,-5.014263 9.92563,-9.909183 14.72262,-14.81493 C 289,42 289.02035,42.021374 289.32153,41.879967 300.31357,31.174864 311.06576,20.67205 321.65301,10.005542 324.36926,7.268961 326.56509,4.015823 329,0.999997 M 296.03613,252.03322 c 0,0 0.098,0.0567 -0.43255,0.19662 -0.15616,0.31404 -0.31229,0.62808 -0.54807,0.82546 0,0 0.12082,0.0731 -0.41717,0.20518 -0.14954,0.319 -0.29908,0.638 -0.43586,0.76824 0,0 0.0216,0.1882 -0.7088,0.10772 -1.46087,1.99372 -2.92178,3.9874 -4.47995,5.8588 0,0 0.10971,0.1124 -0.64242,0.0585 -1.8357,2.27231 -3.67136,4.54462 -6.1568,7.00934 -1.79178,2.59372 -3.58353,5.18744 -5.98859,8.00363 -0.48147,0.91379 -0.96295,1.82761 -2.0878,2.96066 C 268.94821,282.6026 265.47751,288.20468 264,295 c 0,0 -10e-4,0.002 -0.70346,0.0577 -1.75519,3.32751 -3.51038,6.65506 -5.29654,9.94235 0,0 0.0438,0.026 -0.68051,0.11734 -0.42877,1.29837 -0.85752,2.59677 -1.31473,3.89087 0,0 0.0154,0.0248 -0.7271,0.0767 -0.68968,1.69507 -1.37936,3.39014 -2.21266,5.10794 0,0 0.1489,4.9e-4 -0.55203,-0.0285 -0.51846,1.59369 -1.03693,3.18741 -1.62122,5.36926 -0.31105,0.49002 -0.6221,0.98007 -1.61625,1.57413 -2.45363,4.99215 -5.17099,9.87509 -7.2954,15.00363 -2.77353,6.69568 -1.88035,7.8338 5.18213,7.83401 66.41376,0.002 132.82828,0.17398 199.24069,-0.12823 16.87857,-0.0768 32.64698,-4.90903 46.0069,-15.85105 2.08987,-1.7116 3.73361,-3.96795 6.2637,-6.07418 3.49427,-3.91694 6.98853,-7.8339 11.16986,-11.94171 4.45478,-3.07139 9.01429,-6.0535 10.86866,-12.05054 2.47467,-1.57733 4.97229,-3.12 7.41955,-4.73883 6.06922,-4.0148 11.66089,-9.24106 18.28668,-11.80033 8.17005,-3.15576 17.12159,-4.61474 25.87098,-5.83642 6.50653,-0.90842 13.23523,-0.47238 19.8526,-0.2569 4.68719,0.15262 9.35986,1.38333 14.02813,1.32105 5.29541,-0.0706 10.56556,-1.27246 15.87,-1.58402 12.72516,-0.74731 25.58533,-1.12851 37.4339,-6.29733 5.41223,-2.36106 11.54919,-4.47815 14.99371,-10.81693 0.45801,-0.33621 0.91602,-0.67239 2.14496,-0.99084 0.71222,-1.03981 1.42438,-2.07964 2.23444,-3.00429 0,0 -0.0467,-0.14377 0.72119,2e-4 3.21191,-0.23818 4.64685,-1.91388 4.42858,-4.95188 0,0 -0.25396,-0.20994 0.46845,-0.11196 3.49097,-4.46445 7.74982,-8.53206 10.30658,-13.47931 4.73334,-9.15882 7.39874,-19.1422 8.04486,-29.50502 0.0961,-1.53998 -1.24231,-3.16941 -1.85278,-4.85651 0,0 -0.0432,0.10892 -0.24115,-0.41469 -0.33136,-0.13711 -0.66278,-0.27423 -1.38752,-0.51826 0,0 -0.32403,-0.24741 -0.54156,-0.65898 -0.22308,-0.25103 -0.50214,-0.36483 -0.79962,-0.39823 0,0 -0.0483,0.0494 -0.2522,-0.42445 -0.3089,-0.11373 -0.61774,-0.22745 -0.91925,-0.44122 0,0 -0.0706,0.0713 -0.0183,-0.66445 -2.24884,-1.15381 -4.49762,-2.3076 -6.80939,-3.44719 0,0 -0.0181,-0.0619 -0.22705,-0.50932 -0.22149,-0.27745 -0.50982,-0.41719 -0.76782,-0.5036 0,0 -0.0972,0.0895 -0.14825,-0.66817 -1.69336,-0.70642 -3.38666,-1.41284 -5.62232,-2.26407 -0.4508,-0.31814 -0.90161,-0.63629 -1.40045,-1.65437 -2.99817,-1.39723 -5.99628,-2.79448 -8.96784,-4.33241 0,0 -0.0778,0.1202 -0.0695,-0.62604 -1.99695,-0.77361 -3.99396,-1.54721 -6.40906,-2.3971 0,0 -0.37311,-0.20361 -0.64392,-0.62008 -0.26337,-0.25098 -0.57227,-0.33515 -0.77997,-0.37302 0,0 -0.10889,0.15555 -0.34045,-0.44272 -0.58814,-0.14549 -1.17627,-0.29097 -1.76368,-0.59982 0,0 -0.034,0.16006 -0.0642,-0.584 -2.00396,-0.67035 -4.00799,-1.3407 -6.11755,-2.0285 0,0 -0.10071,-0.0363 0.0525,-0.77599 -0.37097,-0.48915 -0.64209,-1.24852 -1.12762,-1.42786 -11.78113,-4.35214 -23.44238,-9.10678 -35.43219,-12.78984 -8.82929,-2.71222 -17.68311,-6.19474 -27.21753,-5.26316 0,0 -0.076,0.004 -0.14893,-0.76264 -0.30511,-0.37248 -0.56488,-1.01804 -0.92206,-1.07747 -8.747,-1.45543 -17.45947,-3.40831 -26.27093,-4.11328 -11.409,-0.91278 -22.9035,-1.20944 -34.35168,-1.05681 -12.2569,0.16344 -24.54474,0.72583 -36.74149,1.91193 -11.82459,1.14992 -23.61142,2.99356 -35.28546,5.21278 -3.84128,0.73023 -8.75321,0.0572 -11.89347,4.70117 -0.41107,0.0612 -0.82211,0.12239 -1.69686,-0.37153 -5.52924,1.37013 -11.1012,2.59518 -16.56046,4.20292 -1.54483,0.45498 -2.76041,2.02793 -4.56485,3.35277 -0.32998,0.0726 -0.65997,0.14517 -1.69214,0.0345 -0.57657,0.32919 -1.15314,0.65838 -1.7839,0.85052 0,0 0.0987,0.10948 -0.7211,-0.0184 -5.86264,1.333 -11.98627,2.05641 -16.57962,7.20481 0,0 -0.33957,0.0798 -1.1532,-0.10649 -1.28238,0.19648 -2.69739,0.10878 -3.82559,0.63547 -7.39728,3.45331 -14.75858,6.98776 -22.05008,10.65773 -0.77317,0.38916 -1.01847,1.82713 -1.53025,2.74837 0,0 -0.0226,0.0134 -0.78799,-0.10713 -1.49487,0.93373 -2.98978,1.86746 -4.85672,2.91162 0,0 -0.37888,0.0843 -1.17773,0.0623 -4.15702,2.61284 -8.314,5.22568 -13.19901,7.93732 -2.62262,1.31307 -5.56213,2.23192 -7.79651,4.02802 -3.71149,2.98352 -6.97009,6.53047 -10.59878,10.28998 0,0 -0.13434,0.4653 -0.67856,0.52638 -0.34082,0.12915 -0.68164,0.2583 -1.32862,-0.16251 -1.30157,1.06273 -2.60314,2.12546 -4.60684,3.28836 -2.1156,1.95326 -4.2312,3.90651 -7.04022,5.98564 -2.41513,2.31337 -4.83026,4.62674 -7.6301,7.20717 -0.24313,0.20105 -0.44955,0.43457 -1.33102,0.81102 -5.28836,5.1575 -10.58069,10.31093 -15.84067,15.49725 -0.12402,0.12227 0.1156,0.61336 0.12158,0.94143 0,0 -0.0646,-0.003 -0.67694,0.064 -0.12463,0.36449 -0.24926,0.72897 -0.47641,1.3765 0,0 -0.23681,0.1858 -0.72711,0.3847 -0.15048,0.30666 -0.30096,0.6133 -0.50821,0.82204 m 369.92353,198.01829 c 0.3139,-0.68331 0.6278,-1.36664 1.09497,-2.42901 0,0 0.0304,-0.40772 0.6687,-0.75357 10.85034,-21.22922 -0.0343,-45.87421 -22.97376,-51.50824 -9.07055,-2.22772 -18.05957,-1.8898 -26.90704,3.54184 -3.7301,3.48114 -8.22101,6.4349 -11.06165,10.53265 -14.00903,20.20865 -4.86419,47.93103 17.76008,54.6463 0,0 -0.16755,-0.0275 0.69488,0.37262 0.93042,0.15613 1.86078,0.31226 3.54895,0.76877 10.08612,1.83624 19.47528,0.49365 28.05133,-6.12445 0,0 0.16254,-0.29492 0.78247,-0.49701 2.60443,-2.71313 5.20886,-5.42627 7.75293,-8.23132 0,0 0.10895,0.015 0.58814,-0.31858 M 531.16199,641.99286 c -12.38153,-1.06153 -24.96949,-1.04901 -37.1066,-3.38208 -39.54144,-7.60083 -73.95493,-25.59253 -102.1622,-54.44873 -18.01026,-18.42462 -32.44708,-39.55475 -41.48871,-63.85224 -3.9169,-10.52581 -6.78235,-21.51422 -9.21875,-32.49374 -1.54349,-6.95569 -1.48898,-7.836 -8.69849,-7.76105 -25.29998,0.26309 -50.59903,0.61472 -75.89908,0.86795 -9.76481,0.0977 -19.5411,0.28128 -29.29292,-0.0857 -4.74139,-0.17844 -5.88212,1.72134 -5.25368,5.82361 1.50353,9.81454 2.5859,19.71481 4.57607,29.42929 4.40637,21.5086 10.69662,42.49976 20.41515,62.24127 6.80616,13.82556 13.4877,27.88013 21.9711,40.67462 14.0426,21.17877 29.46972,41.51313 49.35009,57.74738 13.70951,11.19513 27.47684,22.48181 42.2244,32.20099 17.44012,11.49365 36.048,21.25811 55.89133,28.1286 12.97662,4.49304 26.27517,8.05627 40.0303,12.48333 17.20203,4.90467 34.88541,6.29639 52.62512,7.72266 27.57532,2.21723 54.86756,0.0989 81.90247,-4.93567 30.59698,-5.69812 59.61944,-16.24512 87.10309,-30.91284 34.78173,-18.5628 64.82312,-43.08966 89.92749,-73.37115 26.53662,-32.00922 46.36834,-67.87732 56.89727,-108.2743 4.46509,-17.13122 7.11475,-34.76815 9.92811,-52.28152 1.14569,-7.13162 0.33813,-7.3472 -6.8313,-7.29062 -20.81556,0.16419 -41.63025,0.44702 -62.44587,0.58759 -14.13299,0.0954 -28.26763,0.0963 -42.40033,-0.014 -3.28643,-0.0256 -4.70532,0.72504 -5.61199,4.39349 -3.26142,13.19474 -6.33533,26.54502 -11.07953,39.2388 -7.39112,19.77613 -19.06965,37.09583 -33.02899,53.03961 -18.77363,21.44245 -41.37671,37.42524 -67.21686,48.90192 -23.5506,10.45984 -48.55024,14.68945 -75.10669,15.6225 M 664.047,308.82281 c -14.95673,3.57282 -30.13898,4.55338 -45.47089,4.19278 -8.82825,-0.20764 -17.67346,0.20597 -26.49658,-0.0911 -10.37378,-0.34928 -20.14673,1.79584 -29.49976,6.06723 -10.33404,4.71939 -18.1759,12.03683 -23.51373,22.6944 92.52966,0 184.41077,0 277.22345,0 -17.29901,-44.92136 -44.51495,-81.74524 -79.29193,-112.44295 -5.61505,12.2195 -10.54083,23.70224 -16.11878,34.8589 -5.36157,10.72382 -13.73168,19.13532 -22.78289,26.82794 -9.78479,8.31623 -21.2298,13.56204 -34.04889,17.89282 M 540.50006,602.06439 c 37.25452,-2.83593 69.13446,-17.31457 94.80103,-44.57666 5.86645,-6.2312 10.98791,-13.393 15.28161,-20.80469 3.56818,-6.15924 1.66187,-12.69116 -3.17212,-17.93847 -4.94598,-5.36872 -11.76678,-7.30957 -18.09985,-3.84784 -4.29797,2.34924 -8.03253,6.30005 -11.09534,10.25073 -32.39972,41.79175 -86.72534,55.6142 -134.35333,33.77765 -17.93164,-8.22131 -32.41763,-20.78387 -44.0961,-36.61926 -4.30014,-5.83087 -9.62634,-9.95002 -17.24139,-8.89398 -13.02646,1.80651 -18.7725,16.09887 -10.82084,27.71057 11.0254,16.10028 24.61554,29.73962 41.49998,39.80584 26.61276,15.86615 55.28256,23.44214 87.29635,21.13611 M 704.96429,383.48862 c 0.30262,1.11636 0.5047,2.27197 0.92286,3.34326 6.06597,15.53998 10.63629,31.48581 11.89441,48.16626 0.35693,4.73163 1.78448,6.14496 6.52331,6.11764 34.9527,-0.20123 69.90698,-0.13302 104.86072,-0.14978 6.98065,-0.003 7.55255,-0.0682 6.75128,-7.16708 -1.78278,-15.79581 -4.20557,-31.51914 -6.34705,-47.27481 -0.66528,-4.89478 -4.24096,-5.36023 -8.0899,-5.3602 -37.11749,1.5e-4 -74.23505,-0.003 -111.3523,0.0908 -1.66418,0.004 -3.32598,0.92654 -5.16333,2.23395 M 277.5,440.89075 c 12.60992,0 25.21985,0 36.47,0 4.24234,-20.17865 8.27396,-39.35504 12.41559,-59.0546 -6.41705,0 -12.88159,0.004 -19.34613,-6.4e-4 -24.32691,-0.0164 -48.65387,-0.0205 -72.9807,-0.0718 -3.14232,-0.007 -6.37207,-0.0302 -6.88792,3.97724 -2.14276,16.64605 -4.13375,33.3117 -6.16968,49.97143 -0.5123,4.19214 1.42496,5.39911 5.51288,5.34485 16.65977,-0.22122 33.32361,-0.13654 50.98596,-0.16647 m 149.59842,443.99109 c 18.3266,-3.41047 28.53925,-13.62507 31.27859,-31.28461 2.24054,-14.44397 -4.03445,-27.80316 -16.75738,-35.67566 -11.79303,-7.29724 -28.45602,-6.56439 -40.03992,1.76086 -11.20315,8.05158 -17.09628,23.73957 -13.93982,37.10895 4.4465,18.83338 17.94998,28.69501 39.45853,28.09046 m 105.80582,-0.13245 c 1.2962,-0.29535 2.59783,-0.56873 3.88781,-0.88922 17.8241,-4.42896 27.72553,-20.79364 26.96802,-37.27826 -0.77228,-16.80676 -13.48492,-30.56146 -30.51788,-33.22388 -27.66529,-4.32434 -47.2439,20.23865 -40.02814,45.58765 5.09763,17.90796 18.58063,26.40436 39.69019,25.80371 M 389.13522,423.82004 c -0.11441,1.32693 -0.26416,2.65188 -0.33789,3.98108 -0.86633,15.61435 5.86002,27.35443 19.49051,34.29461 13.65396,6.95212 27.2703,5.25794 39.17819,-4.52441 11.50632,-9.45242 15.11756,-22.07544 11.73224,-36.35184 -3.86648,-16.3056 -18.19223,-27.18503 -34.57736,-27.03943 -17.5246,0.15567 -30.84625,11.01169 -35.48569,29.63999 m 274.4393,441.03769 c 3.69751,-9.36499 5.36798,-18.93018 1.32093,-28.54016 -5.73322,-13.61402 -15.95264,-22.1131 -30.82489,-23.16144 -15.02509,-1.05908 -26.50794,5.48041 -34.09388,18.79376 -7.32574,12.85644 -4.25012,33.07941 7.47962,43.25806 8.89825,7.72155 18.47882,10.91827 30.09057,8.94268 11.73585,-1.99676 19.57551,-9.02703 26.02765,-19.2929 z" />
	<path fill="#fdaa7c" opacity="1" stroke="none" d="m 532.09967,642.06091 c 25.61877,-1.0011 50.61841,-5.23071 74.16901,-15.69055 25.84015,-11.47668 48.44323,-27.45947 67.21686,-48.90192 13.95934,-15.94378 25.63787,-33.26348 33.02899,-53.03961 4.7442,-12.69378 7.81811,-26.04406 11.07953,-39.2388 0.90667,-3.66845 2.32556,-4.41912 5.61199,-4.39349 14.1327,0.11023 28.26734,0.10937 42.40033,0.014 20.81562,-0.14057 41.63031,-0.4234 62.44587,-0.58759 7.16943,-0.0566 7.97699,0.159 6.8313,7.29062 -2.81336,17.51337 -5.46302,35.1503 -9.92811,52.28152 -10.52893,40.39698 -30.36065,76.26508 -56.89727,108.2743 -25.10437,30.28149 -55.14576,54.80835 -89.92749,73.37115 -27.48365,14.66772 -56.50611,25.21472 -87.10309,30.91284 -27.03491,5.03461 -54.32715,7.1529 -81.90247,4.93567 -17.73971,-1.42627 -35.42309,-2.81799 -52.88714,-8.37121 2.86184,-20.99878 14.55346,-36.52991 28.8721,-50.0752 9.47268,-8.96112 20.59643,-16.15082 30.45694,-24.73553 9.60736,-8.36426 16.6214,-18.48053 16.53265,-32.04615 z" />
	<path fill="#e8dbbf" opacity="1" stroke="none" d="m 531.63086,642.02685 c 0.55756,13.59968 -6.45648,23.71595 -16.06384,32.08021 -9.86051,8.58471 -20.98426,15.77441 -30.45694,24.73553 -14.31864,13.54529 -26.01026,29.07642 -29.17249,49.8515 -13.19272,-3.55481 -26.49127,-7.11804 -39.46789,-11.61108 -19.84333,-6.87049 -38.45121,-16.63495 -55.89133,-28.1286 -14.74756,-9.71918 -28.51489,-21.00586 -42.2244,-32.20099 -19.88037,-16.23425 -35.30749,-36.56861 -49.35009,-57.74738 -8.4834,-12.79449 -15.16494,-26.84906 -21.9711,-40.67462 -9.71853,-19.74151 -16.00878,-40.73267 -20.41515,-62.24127 -1.99017,-9.71448 -3.07254,-19.61475 -4.57607,-29.42929 -0.62844,-4.10227 0.51229,-6.00205 5.25368,-5.82361 9.75182,0.367 19.52811,0.18347 29.29292,0.0857 25.30005,-0.25323 50.5991,-0.60486 75.89908,-0.86795 7.20951,-0.075 7.155,0.80536 8.69849,7.76105 2.4364,10.97952 5.30185,21.96793 9.21875,32.49374 9.04163,24.29749 23.47845,45.42762 41.48871,63.85224 28.20727,28.8562 62.62076,46.8479 102.1622,54.44873 12.13711,2.33307 24.72507,2.32055 37.57547,3.41607 z" id="path1068" />
	<path fill="#e8dabf" opacity="1" stroke="none" d="m 664.42895,308.68842 c 12.43714,-4.19639 23.88215,-9.4422 33.66694,-17.75843 9.05121,-7.69262 17.42132,-16.10412 22.78289,-26.82794 5.57795,-11.15666 10.50373,-22.6394 16.11878,-34.8589 34.77698,30.69771 61.99292,67.52159 79.29193,112.44295 -92.81268,0 -184.69379,0 -277.22345,0 5.33783,-10.65757 13.17969,-17.97501 23.51373,-22.6944 9.35303,-4.27139 19.12598,-6.41651 29.49976,-6.06723 8.82312,0.29709 17.66833,-0.11652 26.49658,0.0911 15.33191,0.3606 30.51416,-0.61996 45.85284,-4.32717 z" />
	<path fill="#3b6469" opacity="1" stroke="none" d="m 540.02924,602.07819 c -31.54297,2.29223 -60.21277,-5.28376 -86.82553,-21.14991 -16.88444,-10.06622 -30.47458,-23.70556 -41.49998,-39.80584 -7.95166,-11.6117 -2.20562,-25.90406 10.82084,-27.71057 7.61505,-1.05604 12.94125,3.06311 17.24139,8.89398 11.67847,15.83539 26.16446,28.39795 44.0961,36.61926 47.62799,21.83655 101.95361,8.0141 134.35333,-33.77765 3.06281,-3.95068 6.79737,-7.90149 11.09534,-10.25073 6.33307,-3.46173 13.15387,-1.52088 18.09985,3.84784 4.83399,5.24731 6.7403,11.77923 3.17212,17.93847 -4.2937,7.41169 -9.41516,14.57349 -15.28161,20.80469 -25.66657,27.26209 -57.54651,41.74073 -95.27185,44.59046 z" />
	<path fill="#fcad7f" opacity="1" troke="none" d="m 705.05151,383.08227 c 1.75013,-0.90106 3.41193,-1.82339 5.07611,-1.8276 37.11725,-0.0936 74.23481,-0.0906 111.3523,-0.0908 3.84894,-3e-5 7.42462,0.46542 8.0899,5.3602 2.14148,15.75567 4.56427,31.479 6.34705,47.27481 0.80127,7.09888 0.22937,7.16373 -6.75128,7.16708 -34.95374,0.0168 -69.90802,-0.0514 -104.86072,0.14978 -4.73883,0.0273 -6.16638,-1.38601 -6.52331,-6.11764 -1.25812,-16.68045 -5.82844,-32.62628 -11.89441,-48.16626 -0.41816,-1.07129 -0.62024,-2.2269 -0.83564,-3.74961 z" />
	<path fill="#07b9ad" opacity="1" stroke="none" d="m 277,440.89172 c -17.16235,0.029 -33.82619,-0.0557 -50.48596,0.1655 -4.08792,0.0543 -6.02518,-1.15271 -5.51288,-5.34485 2.03593,-16.65973 4.02692,-33.32538 6.16968,-49.97143 0.51585,-4.00742 3.7456,-3.98389 6.88792,-3.97724 24.32683,0.0513 48.65379,0.0554 72.9807,0.0718 6.46454,0.004 12.92908,6.4e-4 19.34613,6.4e-4 -4.14163,19.69956 -8.17325,38.87595 -12.41559,59.0546 -11.25015,0 -23.86008,0 -36.97,9.7e-4 z" />
	<path fill="#0ab7ab" opacity="1" stroke="none" d="m 426.64716,884.9154 c -21.05729,0.57099 -34.56077,-9.29064 -39.00727,-28.12402 -3.15646,-13.36938 2.73667,-29.05737 13.93982,-37.10895 11.5839,-8.32525 28.24689,-9.0581 40.03992,-1.76086 12.72293,7.8725 18.99792,21.23169 16.75738,35.67566 -2.73934,17.65954 -12.95199,27.87414 -31.72985,31.31817 z" />
	<path fill="#fbaa7c" opacity="1" stroke="none" d="m 532.4668,884.80695 c -20.67212,0.54309 -34.15512,-7.95331 -39.25275,-25.86127 -7.21576,-25.349 12.36285,-49.91199 40.02814,-45.58765 17.03296,2.66242 29.7456,16.41712 30.51788,33.22388 0.75751,16.48462 -9.14392,32.8493 -26.96802,37.27826 -1.28998,0.32049 -2.59161,0.59387 -4.32525,0.94678 z" />
	<path fill="#3c646a" opacity="1" stroke="none" d="m 389.20206,423.40448 c 4.5726,-18.21274 17.89425,-29.06876 35.41885,-29.22443 16.38513,-0.1456 30.71088,10.73383 34.57736,27.03943 3.38532,14.2764 -0.22592,26.89942 -11.73224,36.35184 -11.90789,9.78235 -25.52423,11.47653 -39.17819,4.52441 -13.63049,-6.94018 -20.35684,-18.68026 -19.49051,-34.29461 0.0737,-1.3292 0.22348,-2.65415 0.40473,-4.39664 z" />
	<path fill="#3c646a" opacity="1" stroke="none" d="m 601.9411,423.40487 c 4.5726,-18.21274 17.89425,-29.06876 35.41885,-29.22443 16.38513,-0.1456 30.71088,10.73383 34.57736,27.03943 3.38532,14.2764 -0.22592,26.89942 -11.73224,36.35184 -11.90789,9.78235 -25.52423,11.47653 -39.17819,4.52441 -13.63049,-6.94018 -20.35684,-18.68026 -19.49051,-34.29461 0.0737,-1.3292 0.22348,-2.65415 0.40473,-4.39664 z" />
	<path fill="#e7dabf" opacity="1" stroke="none" d="m 663.39844,865.19366 c -6.27606,9.92994 -14.11572,16.96021 -25.85157,18.95697 -11.61175,1.97559 -21.19232,-1.22113 -30.09057,-8.94268 -11.72974,-10.17865 -14.80536,-30.40162 -7.47962,-43.25806 7.58594,-13.31335 19.06879,-19.85284 34.09388,-18.79376 14.87225,1.04834 25.09167,9.54742 30.82489,23.16144 4.04705,9.60998 2.37658,19.17517 -1.49701,28.87609 z" />
	<path style="fill:#95d8c9;fill-opacity:1;fill-rule:evenodd;stroke:#95d8c9;stroke-opacity:1;paint-order:markers stroke fill" d="M 0,327.41632 327.41632,0 H 0.42743645 Z" />
	<path style="fill:#03a39a;fill-opacity:1;fill-rule:evenodd;stroke:#03a39a;stroke-opacity:1;paint-order:markers stroke fill" d="M 703.98783,1024.1377 1023.2829,710.82681 v 313.73839 z" />
	<path style="fill:#05bbae;fill-opacity:1;fill-rule:evenodd;paint-order:markers stroke fill" d="m 241.5016,341.0943 h 200.89514 c 0,0 35.90466,8.97616 74.80138,-42.31621 0,0 18.8072,-25.64619 53.42955,-26.07363 34.62236,-0.42743 59.84111,0 59.84111,0 0,0 49.58263,0.42744 65.39778,-42.31621 0,0 5.98411,-21.79926 4.7018,-28.63824 0,0 -64.97034,-49.15519 -175.67639,-49.15519 -110.70604,0 -184.22511,59.41367 -184.22511,59.41367 0,0 -44.02596,26.50106 -88.90679,105.5768 z"/>
</svg>